# xmcd
#
# Track frame offsets:
# 150
# 12849
# 23133
# 34404
# 44220
# 57639
# 67453
# 80070
# 91758
# 102382
# 115431
# 126924
#
# Disc length: 1839 seconds
#
#
# Revision: 0
# Processed by: cddbd v1.5.1PL0 Copyright (c) Steve Scherf et al.
# Submitted via: FreeRIP 2.942 
#
DISCID=b5072d0c
DTITLE=Lester Flatt - Gospel
DYEAR=2005
DGENRE=Gospel
TTITLE0=I'm Going That Way
TTITLE1=Brother I'm Getting Ready To Go
TTITLE2=What A Friend We Have In Jesus
TTITLE3=He's Coming Back
TTITLE4=Go Home
TTITLE5=Let The Church Roll On
TTITLE6=Awaiting The Boatman
TTITLE7=God Loves His Children
TTITLE8=Call Me On Home Too
TTITLE9=I've Been Awaiting
TTITLE10=Don't Didn't Stop At Calvary
TTITLE11=You Can Feel It In Your Soul
EXTD=MME
EXTT0=
EXTT1=
EXTT2=
EXTT3=
EXTT4=
EXTT5=
EXTT6=
EXTT7=
EXTT8=
EXTT9=
EXTT10=
EXTT11=
PLAYORDER=
